<?xml version="1.0" encoding="UTF-8"?>
<!-- Generated by jsxcad -->
<!DOCTYPE svg PUBLIC "-//W3C//DTD SVG 1.1 Tiny//EN" "http://www.w3.org/Graphics/SVG/1.1/DTD/svg11-tiny.dtd">
<svg baseProfile="tiny" height="10.000000000000007mm" width="190.0000000000001mm" viewBox="0 0 190.0000000000001 10.000000000000007" version="1.1" stroke="black" stroke-width=".1" fill="none" xmlns="http://www.w3.org/2000/svg">
<path fill="#000000" stroke="#000000" d="M94.02455 9.90393 L93.08658 9.6194 L92.22215 9.15735 L91.46447 8.53553 L90.84265 7.77785 L90.3806 6.91342 L90.09607 5.97545 L90 5 L90.09607 4.02455 L90.3806 3.08658 L90.84265 2.22215 L91.46447 1.46447 L92.22215 0.84265 L93.08658 0.3806 L94.02455 0.09607 L95 0 L95.97545 0.09607 L96.91342 0.3806 L97.77785 0.84265 L98.53553 1.46447 L99.15735 2.22215 L99.6194 3.08658 L99.90393 4.02455 L100 5 L99.90393 5.97545 L99.6194 6.91342 L99.15735 7.77785 L98.53553 8.53553 L97.77785 9.15735 L96.91342 9.6194 L95.97545 9.90393 L95 10 z"/>
<path fill="#000000" stroke="#000000" d="M95.9754496645027 9.903926593638861 L95.9754496645027 9.903926593638861 L95 10.000000000000009 L95 10.000000000000009 z"/>
<path fill="#000000" stroke="#000000" d="M94.02455033549728 9.90392659363885 L94.02455033549728 9.90392659363885 L95 9.999999999999996 L95 9.999999999999996 z"/>
<path fill="#000000" stroke="#000000" d="M97.77784951827945 9.157349413021828 L97.77784951827945 9.157349413021828 L98.53553348740222 8.535534249411906 L98.53553348740222 8.535534249411906 z"/>
<path fill="#000000" stroke="#000000" d="M96.91341911153364 9.619397071118938 L96.91341911153364 9.619397071118938 L95.97544913620739 9.903927152457417 L95.97544913620739 9.903927152457417 z"/>
<path fill="#000000" stroke="#000000" d="M96.91341839755873 9.61939700204326 L96.91341839755873 9.61939700204326 L97.7778494530055 9.15734897664527 L97.7778494530055 9.15734897664527 z"/>
<path fill="#000000" stroke="#000000" d="M99.15734941302182 7.7778495182794725 L99.15734941302182 7.7778495182794725 L98.5355342494119 8.53553348740223 L98.5355342494119 8.53553348740223 z"/>
<path fill="#000000" stroke="#000000" d="M99.61939700204327 6.9134183975587495 L99.61939700204327 6.9134183975587495 L99.15734897664528 7.777849453005515 L99.15734897664528 7.777849453005515 z"/>
<path fill="#000000" stroke="#000000" d="M99.61939707111897 6.9134191115336545 L99.61939707111897 6.9134191115336545 L99.90392715245744 5.97544913620741 L99.90392715245744 5.97544913620741 z"/>
<path fill="#000000" stroke="#000000" d="M100.00000000000004 5.000000000000005 L100.00000000000004 5.000000000000005 L99.9039265936389 5.975449664502715 L99.9039265936389 5.975449664502715 z"/>
<path fill="#000000" stroke="#000000" d="M100.00000000000004 4.999999999999994 L100.00000000000004 4.999999999999994 L99.9039265936389 4.024550335497284 L99.9039265936389 4.024550335497284 z"/>
<path fill="#000000" stroke="#000000" d="M99.61939707111897 3.086580888466346 L99.61939707111897 3.086580888466346 L99.90392715245744 4.024550863792589 L99.90392715245744 4.024550863792589 z"/>
<path fill="#000000" stroke="#000000" d="M99.61939700204327 3.0865816024412513 L99.61939700204327 3.0865816024412513 L99.15734897664528 2.2221505469944867 L99.15734897664528 2.2221505469944867 z"/>
<path fill="#000000" stroke="#000000" d="M98.5355342494119 1.464466512597772 L98.5355342494119 1.464466512597772 L99.15734941302182 2.22215048172053 L99.15734941302182 2.22215048172053 z"/>
<path fill="#000000" stroke="#000000" d="M95.97544913620739 0.0960728475425889 L95.97544913620739 0.0960728475425889 L96.91341911153364 0.38060292888106717 L96.91341911153364 0.38060292888106717 z"/>
<path fill="#000000" stroke="#000000" d="M97.77784945300549 0.8426510233547335 L97.77784945300549 0.8426510233547335 L96.91341839755873 0.38060299795674307 L96.91341839755873 0.38060299795674307 z"/>
<path fill="#000000" stroke="#000000" d="M97.77784951827945 0.8426505869781749 L97.77784951827945 0.8426505869781749 L98.5355334874022 1.4644657505880971 L98.5355334874022 1.4644657505880971 z"/>
<path fill="#000000" stroke="#000000" d="M93.08658160244129 0.3806029979567906 L93.08658160244129 0.3806029979567906 L92.22215054699451 0.8426510233547815 L92.22215054699451 0.8426510233547815 z"/>
<path fill="#000000" stroke="#000000" d="M95 9.09324651755414e-15 L95 9.09324651755414e-15 L94.0245503354973 0.09607340636115491 L94.0245503354973 0.09607340636115491 z"/>
<path fill="#000000" stroke="#000000" d="M94.02455086379261 0.09607284754262016 L94.02455086379261 0.09607284754262016 L93.08658088846636 0.3806029288810989 L93.08658088846636 0.3806029288810989 z"/>
<path fill="#000000" stroke="#000000" d="M95 -2.056083557098941e-15 L95 -2.056083557098941e-15 L95.9754496645027 0.09607340636114453 L95.9754496645027 0.09607340636114453 z"/>
<path fill="#000000" stroke="#000000" d="M91.46446651259782 1.4644657505881529 L91.46446651259782 1.4644657505881529 L92.22215048172058 0.8426505869782311 L92.22215048172058 0.8426505869782311 z"/>
<path fill="#000000" stroke="#000000" d="M91.46446575058816 1.4644665125978278 L91.46446575058816 1.4644665125978278 L90.84265058697824 2.2221504817205857 L90.84265058697824 2.2221504817205857 z"/>
<path fill="#000000" stroke="#000000" d="M90.3806029979568 3.086581602441299 L90.3806029979568 3.086581602441299 L90.84265102335479 2.2221505469945337 L90.84265102335479 2.2221505469945337 z"/>
<path fill="#000000" stroke="#000000" d="M90.38060292888113 3.0865808884663775 L90.38060292888113 3.0865808884663775 L90.09607284754264 4.024550863792621 L90.09607284754264 4.024550863792621 z"/>
<path fill="#000000" stroke="#000000" d="M90.00000000000004 5.000000000000005 L90.00000000000004 5.000000000000005 L90.0960734063612 4.0245503354972945 L90.0960734063612 4.0245503354972945 z"/>
<path fill="#000000" stroke="#000000" d="M90.0960734063612 5.975449664502705 L90.0960734063612 5.975449664502705 L90.00000000000004 4.999999999999994 L90.00000000000004 4.999999999999994 z"/>
<path fill="#000000" stroke="#000000" d="M90.09607284754264 5.975449136207379 L90.09607284754264 5.975449136207379 L90.38060292888112 6.9134191115336225 L90.38060292888112 6.9134191115336225 z"/>
<path fill="#000000" stroke="#000000" d="M90.84265102335479 7.777849453005467 L90.84265102335479 7.777849453005467 L90.3806029979568 6.9134183975587025 L90.3806029979568 6.9134183975587025 z"/>
<path fill="#000000" stroke="#000000" d="M91.46446575058815 8.535533487402175 L91.46446575058815 8.535533487402175 L90.84265058697822 7.7778495182794165 L90.84265058697822 7.7778495182794165 z"/>
<path fill="#000000" stroke="#000000" d="M91.46446651259782 8.535534249411851 L91.46446651259782 8.535534249411851 L92.22215048172058 9.157349413021773 L92.22215048172058 9.157349413021773 z"/>
<path fill="#000000" stroke="#000000" d="M93.08658160244127 9.619397002043213 L93.08658160244127 9.619397002043213 L92.22215054699451 9.157348976645222 L92.22215054699451 9.157348976645222 z"/>
<path fill="#000000" stroke="#000000" d="M93.08658088846636 9.619397071118906 L93.08658088846636 9.619397071118906 L94.02455086379261 9.903927152457385 L94.02455086379261 9.903927152457385 z"/>
<path fill="#000000" stroke="#000000" d="M93.08658 9.6194 L94.02455 9.90393 L95 10 L95.97545 9.90393 L96.91342 9.6194 L97.77785 9.15735 L98.53553 8.53553 L99.15735 7.77785 L99.6194 6.91342 L99.90393 5.97545 L100 5 L99.90393 4.02455 L99.6194 3.08658 L99.15735 2.22215 L98.53553 1.46447 L97.77785 0.84265 L96.91342 0.3806 L95.97545 0.09607 L95 0 L94.02455 0.09607 L93.08658 0.3806 L92.22215 0.84265 L91.46447 1.46447 L90.84265 2.22215 L90.3806 3.08658 L90.09607 4.02455 L90 5 L90.09607 5.97545 L90.3806 6.91342 L90.84265 7.77785 L91.46447 8.53553 L92.22215 9.15735 z"/>
<path fill="#000000" stroke="#000000" d="M114.02455 9.90393 L113.08658 9.6194 L112.22215 9.15735 L111.46447 8.53553 L110.84265 7.77785 L110.3806 6.91342 L110.09607 5.97545 L110 5 L110.09607 4.02455 L110.3806 3.08658 L110.84265 2.22215 L111.46447 1.46447 L112.22215 0.84265 L113.08658 0.3806 L114.02455 0.09607 L115 0 L115.97545 0.09607 L116.91342 0.3806 L117.77785 0.84265 L118.53553 1.46447 L119.15735 2.22215 L119.6194 3.08658 L119.90393 4.02455 L120 5 L119.90393 5.97545 L119.6194 6.91342 L119.15735 7.77785 L118.53553 8.53553 L117.77785 9.15735 L116.91342 9.6194 L115.97545 9.90393 L115 10 z"/>
<path fill="#000000" stroke="#000000" d="M115.9754496645027 9.903926593638861 L115.9754496645027 9.903926593638861 L115 10.000000000000009 L115 10.000000000000009 z"/>
<path fill="#000000" stroke="#000000" d="M114.02455033549728 9.90392659363885 L114.02455033549728 9.90392659363885 L115 9.999999999999996 L115 9.999999999999996 z"/>
<path fill="#000000" stroke="#000000" d="M117.77784951827945 9.157349413021828 L117.77784951827945 9.157349413021828 L118.53553348740222 8.535534249411906 L118.53553348740222 8.535534249411906 z"/>
<path fill="#000000" stroke="#000000" d="M116.91341911153364 9.619397071118938 L116.91341911153364 9.619397071118938 L115.97544913620739 9.903927152457417 L115.97544913620739 9.903927152457417 z"/>
<path fill="#000000" stroke="#000000" d="M116.91341839755873 9.61939700204326 L116.91341839755873 9.61939700204326 L117.7778494530055 9.15734897664527 L117.7778494530055 9.15734897664527 z"/>
<path fill="#000000" stroke="#000000" d="M119.15734941302182 7.7778495182794725 L119.15734941302182 7.7778495182794725 L118.5355342494119 8.53553348740223 L118.5355342494119 8.53553348740223 z"/>
<path fill="#000000" stroke="#000000" d="M119.61939700204327 6.9134183975587495 L119.61939700204327 6.9134183975587495 L119.15734897664528 7.777849453005515 L119.15734897664528 7.777849453005515 z"/>
<path fill="#000000" stroke="#000000" d="M119.61939707111897 6.9134191115336545 L119.61939707111897 6.9134191115336545 L119.90392715245744 5.97544913620741 L119.90392715245744 5.97544913620741 z"/>
<path fill="#000000" stroke="#000000" d="M120.00000000000004 5.000000000000005 L120.00000000000004 5.000000000000005 L119.9039265936389 5.975449664502715 L119.9039265936389 5.975449664502715 z"/>
<path fill="#000000" stroke="#000000" d="M120.00000000000004 4.999999999999994 L120.00000000000004 4.999999999999994 L119.9039265936389 4.024550335497284 L119.9039265936389 4.024550335497284 z"/>
<path fill="#000000" stroke="#000000" d="M119.61939707111897 3.086580888466346 L119.61939707111897 3.086580888466346 L119.90392715245744 4.024550863792589 L119.90392715245744 4.024550863792589 z"/>
<path fill="#000000" stroke="#000000" d="M119.61939700204327 3.0865816024412513 L119.61939700204327 3.0865816024412513 L119.15734897664528 2.2221505469944867 L119.15734897664528 2.2221505469944867 z"/>
<path fill="#000000" stroke="#000000" d="M118.5355342494119 1.464466512597772 L118.5355342494119 1.464466512597772 L119.15734941302182 2.22215048172053 L119.15734941302182 2.22215048172053 z"/>
<path fill="#000000" stroke="#000000" d="M115.97544913620739 0.0960728475425889 L115.97544913620739 0.0960728475425889 L116.91341911153364 0.38060292888106717 L116.91341911153364 0.38060292888106717 z"/>
<path fill="#000000" stroke="#000000" d="M117.77784945300549 0.8426510233547335 L117.77784945300549 0.8426510233547335 L116.91341839755873 0.38060299795674307 L116.91341839755873 0.38060299795674307 z"/>
<path fill="#000000" stroke="#000000" d="M117.77784951827945 0.8426505869781749 L117.77784951827945 0.8426505869781749 L118.5355334874022 1.4644657505880971 L118.5355334874022 1.4644657505880971 z"/>
<path fill="#000000" stroke="#000000" d="M113.08658160244129 0.3806029979567906 L113.08658160244129 0.3806029979567906 L112.22215054699451 0.8426510233547815 L112.22215054699451 0.8426510233547815 z"/>
<path fill="#000000" stroke="#000000" d="M115 9.09324651755414e-15 L115 9.09324651755414e-15 L114.0245503354973 0.09607340636115491 L114.0245503354973 0.09607340636115491 z"/>
<path fill="#000000" stroke="#000000" d="M114.02455086379261 0.09607284754262016 L114.02455086379261 0.09607284754262016 L113.08658088846636 0.3806029288810989 L113.08658088846636 0.3806029288810989 z"/>
<path fill="#000000" stroke="#000000" d="M115 -2.056083557098941e-15 L115 -2.056083557098941e-15 L115.9754496645027 0.09607340636114453 L115.9754496645027 0.09607340636114453 z"/>
<path fill="#000000" stroke="#000000" d="M111.46446651259782 1.4644657505881529 L111.46446651259782 1.4644657505881529 L112.22215048172058 0.8426505869782311 L112.22215048172058 0.8426505869782311 z"/>
<path fill="#000000" stroke="#000000" d="M111.46446575058816 1.4644665125978278 L111.46446575058816 1.4644665125978278 L110.84265058697824 2.2221504817205857 L110.84265058697824 2.2221504817205857 z"/>
<path fill="#000000" stroke="#000000" d="M110.3806029979568 3.086581602441299 L110.3806029979568 3.086581602441299 L110.84265102335479 2.2221505469945337 L110.84265102335479 2.2221505469945337 z"/>
<path fill="#000000" stroke="#000000" d="M110.38060292888113 3.0865808884663775 L110.38060292888113 3.0865808884663775 L110.09607284754264 4.024550863792621 L110.09607284754264 4.024550863792621 z"/>
<path fill="#000000" stroke="#000000" d="M110.00000000000004 5.000000000000005 L110.00000000000004 5.000000000000005 L110.0960734063612 4.0245503354972945 L110.0960734063612 4.0245503354972945 z"/>
<path fill="#000000" stroke="#000000" d="M110.0960734063612 5.975449664502705 L110.0960734063612 5.975449664502705 L110.00000000000004 4.999999999999994 L110.00000000000004 4.999999999999994 z"/>
<path fill="#000000" stroke="#000000" d="M110.09607284754264 5.975449136207379 L110.09607284754264 5.975449136207379 L110.38060292888112 6.9134191115336225 L110.38060292888112 6.9134191115336225 z"/>
<path fill="#000000" stroke="#000000" d="M110.84265102335479 7.777849453005467 L110.84265102335479 7.777849453005467 L110.3806029979568 6.9134183975587025 L110.3806029979568 6.9134183975587025 z"/>
<path fill="#000000" stroke="#000000" d="M111.46446575058815 8.535533487402175 L111.46446575058815 8.535533487402175 L110.84265058697822 7.7778495182794165 L110.84265058697822 7.7778495182794165 z"/>
<path fill="#000000" stroke="#000000" d="M111.46446651259782 8.535534249411851 L111.46446651259782 8.535534249411851 L112.22215048172058 9.157349413021773 L112.22215048172058 9.157349413021773 z"/>
<path fill="#000000" stroke="#000000" d="M113.08658160244127 9.619397002043213 L113.08658160244127 9.619397002043213 L112.22215054699451 9.157348976645222 L112.22215054699451 9.157348976645222 z"/>
<path fill="#000000" stroke="#000000" d="M113.08658088846636 9.619397071118906 L113.08658088846636 9.619397071118906 L114.02455086379261 9.903927152457385 L114.02455086379261 9.903927152457385 z"/>
<path fill="#000000" stroke="#000000" d="M113.08658 9.6194 L114.02455 9.90393 L115 10 L115.97545 9.90393 L116.91342 9.6194 L117.77785 9.15735 L118.53553 8.53553 L119.15735 7.77785 L119.6194 6.91342 L119.90393 5.97545 L120 5 L119.90393 4.02455 L119.6194 3.08658 L119.15735 2.22215 L118.53553 1.46447 L117.77785 0.84265 L116.91342 0.3806 L115.97545 0.09607 L115 0 L114.02455 0.09607 L113.08658 0.3806 L112.22215 0.84265 L111.46447 1.46447 L110.84265 2.22215 L110.3806 3.08658 L110.09607 4.02455 L110 5 L110.09607 5.97545 L110.3806 6.91342 L110.84265 7.77785 L111.46447 8.53553 L112.22215 9.15735 z"/>
<path fill="#000000" stroke="#000000" d="M134.02455 9.90393 L133.08658 9.6194 L132.22215 9.15735 L131.46447 8.53553 L130.84265 7.77785 L130.3806 6.91342 L130.09607 5.97545 L130 5 L130.09607 4.02455 L130.3806 3.08658 L130.84265 2.22215 L131.46447 1.46447 L132.22215 0.84265 L133.08658 0.3806 L134.02455 0.09607 L135 0 L135.97545 0.09607 L136.91342 0.3806 L137.77785 0.84265 L138.53553 1.46447 L139.15735 2.22215 L139.6194 3.08658 L139.90393 4.02455 L140 5 L139.90393 5.97545 L139.6194 6.91342 L139.15735 7.77785 L138.53553 8.53553 L137.77785 9.15735 L136.91342 9.6194 L135.97545 9.90393 L135 10 z"/>
<path fill="#000000" stroke="#000000" d="M135.9754496645027 9.903926593638861 L135.9754496645027 9.903926593638861 L135 10.000000000000009 L135 10.000000000000009 z"/>
<path fill="#000000" stroke="#000000" d="M134.02455033549728 9.90392659363885 L134.02455033549728 9.90392659363885 L135 9.999999999999996 L135 9.999999999999996 z"/>
<path fill="#000000" stroke="#000000" d="M137.77784951827945 9.157349413021828 L137.77784951827945 9.157349413021828 L138.5355334874022 8.535534249411906 L138.5355334874022 8.535534249411906 z"/>
<path fill="#000000" stroke="#000000" d="M136.91341911153364 9.619397071118938 L136.91341911153364 9.619397071118938 L135.97544913620737 9.903927152457417 L135.97544913620737 9.903927152457417 z"/>
<path fill="#000000" stroke="#000000" d="M136.91341839755873 9.61939700204326 L136.91341839755873 9.61939700204326 L137.7778494530055 9.15734897664527 L137.7778494530055 9.15734897664527 z"/>
<path fill="#000000" stroke="#000000" d="M139.15734941302182 7.777849518279465 L139.15734941302182 7.777849518279465 L138.53553424941188 8.53553348740223 L138.53553424941188 8.53553348740223 z"/>
<path fill="#000000" stroke="#000000" d="M139.61939700204326 6.913418397558744 L139.61939700204326 6.913418397558744 L139.15734897664527 7.7778494530055085 L139.15734897664527 7.7778494530055085 z"/>
<path fill="#000000" stroke="#000000" d="M139.61939707111895 6.91341911153365 L139.61939707111895 6.91341911153365 L139.90392715245744 5.97544913620741 L139.90392715245744 5.97544913620741 z"/>
<path fill="#000000" stroke="#000000" d="M140.00000000000003 5.000000000000005 L140.00000000000003 5.000000000000005 L139.9039265936389 5.975449664502715 L139.9039265936389 5.975449664502715 z"/>
<path fill="#000000" stroke="#000000" d="M140.00000000000003 4.999999999999994 L140.00000000000003 4.999999999999994 L139.9039265936389 4.024550335497284 L139.9039265936389 4.024550335497284 z"/>
<path fill="#000000" stroke="#000000" d="M139.61939707111895 3.08658088846635 L139.61939707111895 3.08658088846635 L139.90392715245744 4.024550863792589 L139.90392715245744 4.024550863792589 z"/>
<path fill="#000000" stroke="#000000" d="M139.61939700204326 3.0865816024412576 L139.61939700204326 3.0865816024412576 L139.15734897664527 2.2221505469944924 L139.15734897664527 2.2221505469944924 z"/>
<path fill="#000000" stroke="#000000" d="M138.53553424941188 1.464466512597772 L138.53553424941188 1.464466512597772 L139.15734941302182 2.2221504817205373 L139.15734941302182 2.2221504817205373 z"/>
<path fill="#000000" stroke="#000000" d="M135.97544913620737 0.0960728475425889 L135.97544913620737 0.0960728475425889 L136.91341911153364 0.38060292888106717 L136.91341911153364 0.38060292888106717 z"/>
<path fill="#000000" stroke="#000000" d="M137.77784945300547 0.8426510233547335 L137.77784945300547 0.8426510233547335 L136.91341839755873 0.38060299795674307 L136.91341839755873 0.38060299795674307 z"/>
<path fill="#000000" stroke="#000000" d="M137.77784951827945 0.8426505869781749 L137.77784951827945 0.8426505869781749 L138.5355334874022 1.4644657505880971 L138.5355334874022 1.4644657505880971 z"/>
<path fill="#000000" stroke="#000000" d="M133.08658160244127 0.3806029979567906 L133.08658160244127 0.3806029979567906 L132.2221505469945 0.8426510233547815 L132.2221505469945 0.8426510233547815 z"/>
<path fill="#000000" stroke="#000000" d="M135 9.09324651755414e-15 L135 9.09324651755414e-15 L134.02455033549728 0.09607340636115491 L134.02455033549728 0.09607340636115491 z"/>
<path fill="#000000" stroke="#000000" d="M134.0245508637926 0.09607284754262016 L134.0245508637926 0.09607284754262016 L133.08658088846636 0.3806029288810989 L133.08658088846636 0.3806029288810989 z"/>
<path fill="#000000" stroke="#000000" d="M135 -2.056083557098941e-15 L135 -2.056083557098941e-15 L135.9754496645027 0.09607340636114453 L135.9754496645027 0.09607340636114453 z"/>
<path fill="#000000" stroke="#000000" d="M131.46446651259782 1.4644657505881529 L131.46446651259782 1.4644657505881529 L132.22215048172058 0.8426505869782311 L132.22215048172058 0.8426505869782311 z"/>
<path fill="#000000" stroke="#000000" d="M131.46446575058815 1.4644665125978278 L131.46446575058815 1.4644665125978278 L130.8426505869782 2.222150481720593 L130.8426505869782 2.222150481720593 z"/>
<path fill="#000000" stroke="#000000" d="M130.3806029979568 3.0865816024413046 L130.3806029979568 3.0865816024413046 L130.8426510233548 2.22215054699454 L130.8426510233548 2.22215054699454 z"/>
<path fill="#000000" stroke="#000000" d="M130.3806029288811 3.0865808884663815 L130.3806029288811 3.0865808884663815 L130.09607284754264 4.024550863792621 L130.09607284754264 4.024550863792621 z"/>
<path fill="#000000" stroke="#000000" d="M130.00000000000003 5.000000000000005 L130.00000000000003 5.000000000000005 L130.0960734063612 4.0245503354972945 L130.0960734063612 4.0245503354972945 z"/>
<path fill="#000000" stroke="#000000" d="M130.0960734063612 5.975449664502705 L130.0960734063612 5.975449664502705 L130.00000000000003 4.999999999999994 L130.00000000000003 4.999999999999994 z"/>
<path fill="#000000" stroke="#000000" d="M130.09607284754264 5.975449136207379 L130.09607284754264 5.975449136207379 L130.3806029288811 6.913419111533619 L130.3806029288811 6.913419111533619 z"/>
<path fill="#000000" stroke="#000000" d="M130.8426510233548 7.777849453005461 L130.8426510233548 7.777849453005461 L130.3806029979568 6.913418397558696 L130.3806029979568 6.913418397558696 z"/>
<path fill="#000000" stroke="#000000" d="M131.46446575058815 8.535533487402175 L131.46446575058815 8.535533487402175 L130.8426505869782 7.777849518279409 L130.8426505869782 7.777849518279409 z"/>
<path fill="#000000" stroke="#000000" d="M131.46446651259782 8.535534249411851 L131.46446651259782 8.535534249411851 L132.22215048172058 9.157349413021773 L132.22215048172058 9.157349413021773 z"/>
<path fill="#000000" stroke="#000000" d="M133.08658160244127 9.619397002043213 L133.08658160244127 9.619397002043213 L132.2221505469945 9.157348976645222 L132.2221505469945 9.157348976645222 z"/>
<path fill="#000000" stroke="#000000" d="M133.08658088846636 9.619397071118906 L133.08658088846636 9.619397071118906 L134.0245508637926 9.903927152457385 L134.0245508637926 9.903927152457385 z"/>
<path fill="#000000" stroke="#000000" d="M133.08658 9.6194 L134.02455 9.90393 L135 10 L135.97545 9.90393 L136.91342 9.6194 L137.77785 9.15735 L138.53553 8.53553 L139.15735 7.77785 L139.6194 6.91342 L139.90393 5.97545 L140 5 L139.90393 4.02455 L139.6194 3.08658 L139.15735 2.22215 L138.53553 1.46447 L137.77785 0.84265 L136.91342 0.3806 L135.97545 0.09607 L135 0 L134.02455 0.09607 L133.08658 0.3806 L132.22215 0.84265 L131.46447 1.46447 L130.84265 2.22215 L130.3806 3.08658 L130.09607 4.02455 L130 5 L130.09607 5.97545 L130.3806 6.91342 L130.84265 7.77785 L131.46447 8.53553 L132.22215 9.15735 z"/>
<path fill="#000000" stroke="#000000" d="M154.02455 9.90393 L153.08658 9.6194 L152.22215 9.15735 L151.46447 8.53553 L150.84265 7.77785 L150.3806 6.91342 L150.09607 5.97545 L150 5 L150.09607 4.02455 L150.3806 3.08658 L150.84265 2.22215 L151.46447 1.46447 L152.22215 0.84265 L153.08658 0.3806 L154.02455 0.09607 L155 0 L155.97545 0.09607 L156.91342 0.3806 L157.77785 0.84265 L158.53553 1.46447 L159.15735 2.22215 L159.6194 3.08658 L159.90393 4.02455 L160 5 L159.90393 5.97545 L159.6194 6.91342 L159.15735 7.77785 L158.53553 8.53553 L157.77785 9.15735 L156.91342 9.6194 L155.97545 9.90393 L155 10 z"/>
<path fill="#000000" stroke="#000000" d="M155.9754496645027 9.903926593638861 L155.9754496645027 9.903926593638861 L155 10.000000000000009 L155 10.000000000000009 z"/>
<path fill="#000000" stroke="#000000" d="M154.02455033549728 9.90392659363885 L154.02455033549728 9.90392659363885 L155 9.999999999999996 L155 9.999999999999996 z"/>
<path fill="#000000" stroke="#000000" d="M157.77784951827945 9.157349413021828 L157.77784951827945 9.157349413021828 L158.5355334874022 8.535534249411906 L158.5355334874022 8.535534249411906 z"/>
<path fill="#000000" stroke="#000000" d="M156.91341911153364 9.619397071118938 L156.91341911153364 9.619397071118938 L155.97544913620737 9.903927152457417 L155.97544913620737 9.903927152457417 z"/>
<path fill="#000000" stroke="#000000" d="M156.91341839755873 9.61939700204326 L156.91341839755873 9.61939700204326 L157.7778494530055 9.15734897664527 L157.7778494530055 9.15734897664527 z"/>
<path fill="#000000" stroke="#000000" d="M159.15734941302182 7.777849518279465 L159.15734941302182 7.777849518279465 L158.53553424941188 8.53553348740223 L158.53553424941188 8.53553348740223 z"/>
<path fill="#000000" stroke="#000000" d="M159.61939700204326 6.913418397558744 L159.61939700204326 6.913418397558744 L159.15734897664527 7.7778494530055085 L159.15734897664527 7.7778494530055085 z"/>
<path fill="#000000" stroke="#000000" d="M159.61939707111895 6.91341911153365 L159.61939707111895 6.91341911153365 L159.90392715245744 5.97544913620741 L159.90392715245744 5.97544913620741 z"/>
<path fill="#000000" stroke="#000000" d="M160.00000000000003 5.000000000000005 L160.00000000000003 5.000000000000005 L159.9039265936389 5.975449664502715 L159.9039265936389 5.975449664502715 z"/>
<path fill="#000000" stroke="#000000" d="M160.00000000000003 4.999999999999994 L160.00000000000003 4.999999999999994 L159.9039265936389 4.024550335497284 L159.9039265936389 4.024550335497284 z"/>
<path fill="#000000" stroke="#000000" d="M159.61939707111895 3.08658088846635 L159.61939707111895 3.08658088846635 L159.90392715245744 4.024550863792589 L159.90392715245744 4.024550863792589 z"/>
<path fill="#000000" stroke="#000000" d="M159.61939700204326 3.0865816024412576 L159.61939700204326 3.0865816024412576 L159.15734897664527 2.2221505469944924 L159.15734897664527 2.2221505469944924 z"/>
<path fill="#000000" stroke="#000000" d="M158.53553424941188 1.464466512597772 L158.53553424941188 1.464466512597772 L159.15734941302182 2.2221504817205373 L159.15734941302182 2.2221504817205373 z"/>
<path fill="#000000" stroke="#000000" d="M155.97544913620737 0.0960728475425889 L155.97544913620737 0.0960728475425889 L156.91341911153364 0.38060292888106717 L156.91341911153364 0.38060292888106717 z"/>
<path fill="#000000" stroke="#000000" d="M157.77784945300547 0.8426510233547335 L157.77784945300547 0.8426510233547335 L156.91341839755873 0.38060299795674307 L156.91341839755873 0.38060299795674307 z"/>
<path fill="#000000" stroke="#000000" d="M157.77784951827945 0.8426505869781749 L157.77784951827945 0.8426505869781749 L158.5355334874022 1.4644657505880971 L158.5355334874022 1.4644657505880971 z"/>
<path fill="#000000" stroke="#000000" d="M153.08658160244127 0.3806029979567906 L153.08658160244127 0.3806029979567906 L152.2221505469945 0.8426510233547815 L152.2221505469945 0.8426510233547815 z"/>
<path fill="#000000" stroke="#000000" d="M155 9.09324651755414e-15 L155 9.09324651755414e-15 L154.02455033549728 0.09607340636115491 L154.02455033549728 0.09607340636115491 z"/>
<path fill="#000000" stroke="#000000" d="M154.0245508637926 0.09607284754262016 L154.0245508637926 0.09607284754262016 L153.08658088846636 0.3806029288810989 L153.08658088846636 0.3806029288810989 z"/>
<path fill="#000000" stroke="#000000" d="M155 -2.056083557098941e-15 L155 -2.056083557098941e-15 L155.9754496645027 0.09607340636114453 L155.9754496645027 0.09607340636114453 z"/>
<path fill="#000000" stroke="#000000" d="M151.46446651259782 1.4644657505881529 L151.46446651259782 1.4644657505881529 L152.22215048172058 0.8426505869782311 L152.22215048172058 0.8426505869782311 z"/>
<path fill="#000000" stroke="#000000" d="M151.46446575058815 1.4644665125978278 L151.46446575058815 1.4644665125978278 L150.8426505869782 2.222150481720593 L150.8426505869782 2.222150481720593 z"/>
<path fill="#000000" stroke="#000000" d="M150.3806029979568 3.0865816024413046 L150.3806029979568 3.0865816024413046 L150.8426510233548 2.22215054699454 L150.8426510233548 2.22215054699454 z"/>
<path fill="#000000" stroke="#000000" d="M150.3806029288811 3.0865808884663815 L150.3806029288811 3.0865808884663815 L150.09607284754264 4.024550863792621 L150.09607284754264 4.024550863792621 z"/>
<path fill="#000000" stroke="#000000" d="M150.00000000000003 5.000000000000005 L150.00000000000003 5.000000000000005 L150.0960734063612 4.0245503354972945 L150.0960734063612 4.0245503354972945 z"/>
<path fill="#000000" stroke="#000000" d="M150.0960734063612 5.975449664502705 L150.0960734063612 5.975449664502705 L150.00000000000003 4.999999999999994 L150.00000000000003 4.999999999999994 z"/>
<path fill="#000000" stroke="#000000" d="M150.09607284754264 5.975449136207379 L150.09607284754264 5.975449136207379 L150.3806029288811 6.913419111533619 L150.3806029288811 6.913419111533619 z"/>
<path fill="#000000" stroke="#000000" d="M150.8426510233548 7.777849453005461 L150.8426510233548 7.777849453005461 L150.3806029979568 6.913418397558696 L150.3806029979568 6.913418397558696 z"/>
<path fill="#000000" stroke="#000000" d="M151.46446575058815 8.535533487402175 L151.46446575058815 8.535533487402175 L150.8426505869782 7.777849518279409 L150.8426505869782 7.777849518279409 z"/>
<path fill="#000000" stroke="#000000" d="M151.46446651259782 8.535534249411851 L151.46446651259782 8.535534249411851 L152.22215048172058 9.157349413021773 L152.22215048172058 9.157349413021773 z"/>
<path fill="#000000" stroke="#000000" d="M153.08658160244127 9.619397002043213 L153.08658160244127 9.619397002043213 L152.2221505469945 9.157348976645222 L152.2221505469945 9.157348976645222 z"/>
<path fill="#000000" stroke="#000000" d="M153.08658088846636 9.619397071118906 L153.08658088846636 9.619397071118906 L154.0245508637926 9.903927152457385 L154.0245508637926 9.903927152457385 z"/>
<path fill="#000000" stroke="#000000" d="M153.08658 9.6194 L154.02455 9.90393 L155 10 L155.97545 9.90393 L156.91342 9.6194 L157.77785 9.15735 L158.53553 8.53553 L159.15735 7.77785 L159.6194 6.91342 L159.90393 5.97545 L160 5 L159.90393 4.02455 L159.6194 3.08658 L159.15735 2.22215 L158.53553 1.46447 L157.77785 0.84265 L156.91342 0.3806 L155.97545 0.09607 L155 0 L154.02455 0.09607 L153.08658 0.3806 L152.22215 0.84265 L151.46447 1.46447 L150.84265 2.22215 L150.3806 3.08658 L150.09607 4.02455 L150 5 L150.09607 5.97545 L150.3806 6.91342 L150.84265 7.77785 L151.46447 8.53553 L152.22215 9.15735 z"/>
<path fill="#000000" stroke="#000000" d="M174.02455 9.90393 L173.08658 9.6194 L172.22215 9.15735 L171.46447 8.53553 L170.84265 7.77785 L170.3806 6.91342 L170.09607 5.97545 L170 5 L170.09607 4.02455 L170.3806 3.08658 L170.84265 2.22215 L171.46447 1.46447 L172.22215 0.84265 L173.08658 0.3806 L174.02455 0.09607 L175 0 L175.97545 0.09607 L176.91342 0.3806 L177.77785 0.84265 L178.53553 1.46447 L179.15735 2.22215 L179.6194 3.08658 L179.90393 4.02455 L180 5 L179.90393 5.97545 L179.6194 6.91342 L179.15735 7.77785 L178.53553 8.53553 L177.77785 9.15735 L176.91342 9.6194 L175.97545 9.90393 L175 10 z"/>
<path fill="#000000" stroke="#000000" d="M175.9754496645027 9.903926593638861 L175.9754496645027 9.903926593638861 L175 10.000000000000009 L175 10.000000000000009 z"/>
<path fill="#000000" stroke="#000000" d="M174.02455033549728 9.90392659363885 L174.02455033549728 9.90392659363885 L175 9.999999999999996 L175 9.999999999999996 z"/>
<path fill="#000000" stroke="#000000" d="M177.77784951827945 9.157349413021828 L177.77784951827945 9.157349413021828 L178.5355334874022 8.535534249411906 L178.5355334874022 8.535534249411906 z"/>
<path fill="#000000" stroke="#000000" d="M176.91341911153364 9.619397071118938 L176.91341911153364 9.619397071118938 L175.97544913620737 9.903927152457417 L175.97544913620737 9.903927152457417 z"/>
<path fill="#000000" stroke="#000000" d="M176.91341839755873 9.61939700204326 L176.91341839755873 9.61939700204326 L177.7778494530055 9.15734897664527 L177.7778494530055 9.15734897664527 z"/>
<path fill="#000000" stroke="#000000" d="M179.15734941302182 7.777849518279465 L179.15734941302182 7.777849518279465 L178.53553424941188 8.53553348740223 L178.53553424941188 8.53553348740223 z"/>
<path fill="#000000" stroke="#000000" d="M179.61939700204326 6.913418397558744 L179.61939700204326 6.913418397558744 L179.15734897664527 7.7778494530055085 L179.15734897664527 7.7778494530055085 z"/>
<path fill="#000000" stroke="#000000" d="M179.61939707111895 6.91341911153365 L179.61939707111895 6.91341911153365 L179.90392715245744 5.97544913620741 L179.90392715245744 5.97544913620741 z"/>
<path fill="#000000" stroke="#000000" d="M180.00000000000003 5.000000000000005 L180.00000000000003 5.000000000000005 L179.9039265936389 5.975449664502715 L179.9039265936389 5.975449664502715 z"/>
<path fill="#000000" stroke="#000000" d="M180.00000000000003 4.999999999999994 L180.00000000000003 4.999999999999994 L179.9039265936389 4.024550335497284 L179.9039265936389 4.024550335497284 z"/>
<path fill="#000000" stroke="#000000" d="M179.61939707111895 3.08658088846635 L179.61939707111895 3.08658088846635 L179.90392715245744 4.024550863792589 L179.90392715245744 4.024550863792589 z"/>
<path fill="#000000" stroke="#000000" d="M179.61939700204326 3.0865816024412576 L179.61939700204326 3.0865816024412576 L179.15734897664527 2.2221505469944924 L179.15734897664527 2.2221505469944924 z"/>
<path fill="#000000" stroke="#000000" d="M178.53553424941188 1.464466512597772 L178.53553424941188 1.464466512597772 L179.15734941302182 2.2221504817205373 L179.15734941302182 2.2221504817205373 z"/>
<path fill="#000000" stroke="#000000" d="M175.97544913620737 0.0960728475425889 L175.97544913620737 0.0960728475425889 L176.91341911153364 0.38060292888106717 L176.91341911153364 0.38060292888106717 z"/>
<path fill="#000000" stroke="#000000" d="M177.77784945300547 0.8426510233547335 L177.77784945300547 0.8426510233547335 L176.91341839755873 0.38060299795674307 L176.91341839755873 0.38060299795674307 z"/>
<path fill="#000000" stroke="#000000" d="M177.77784951827945 0.8426505869781749 L177.77784951827945 0.8426505869781749 L178.5355334874022 1.4644657505880971 L178.5355334874022 1.4644657505880971 z"/>
<path fill="#000000" stroke="#000000" d="M173.08658160244127 0.3806029979567906 L173.08658160244127 0.3806029979567906 L172.2221505469945 0.8426510233547815 L172.2221505469945 0.8426510233547815 z"/>
<path fill="#000000" stroke="#000000" d="M175 9.09324651755414e-15 L175 9.09324651755414e-15 L174.02455033549728 0.09607340636115491 L174.02455033549728 0.09607340636115491 z"/>
<path fill="#000000" stroke="#000000" d="M174.0245508637926 0.09607284754262016 L174.0245508637926 0.09607284754262016 L173.08658088846636 0.3806029288810989 L173.08658088846636 0.3806029288810989 z"/>
<path fill="#000000" stroke="#000000" d="M175 -2.056083557098941e-15 L175 -2.056083557098941e-15 L175.9754496645027 0.09607340636114453 L175.9754496645027 0.09607340636114453 z"/>
<path fill="#000000" stroke="#000000" d="M171.46446651259782 1.4644657505881529 L171.46446651259782 1.4644657505881529 L172.22215048172058 0.8426505869782311 L172.22215048172058 0.8426505869782311 z"/>
<path fill="#000000" stroke="#000000" d="M171.46446575058815 1.4644665125978278 L171.46446575058815 1.4644665125978278 L170.8426505869782 2.222150481720593 L170.8426505869782 2.222150481720593 z"/>
<path fill="#000000" stroke="#000000" d="M170.3806029979568 3.0865816024413046 L170.3806029979568 3.0865816024413046 L170.8426510233548 2.22215054699454 L170.8426510233548 2.22215054699454 z"/>
<path fill="#000000" stroke="#000000" d="M170.3806029288811 3.0865808884663815 L170.3806029288811 3.0865808884663815 L170.09607284754264 4.024550863792621 L170.09607284754264 4.024550863792621 z"/>
<path fill="#000000" stroke="#000000" d="M170.00000000000003 5.000000000000005 L170.00000000000003 5.000000000000005 L170.0960734063612 4.0245503354972945 L170.0960734063612 4.0245503354972945 z"/>
<path fill="#000000" stroke="#000000" d="M170.0960734063612 5.975449664502705 L170.0960734063612 5.975449664502705 L170.00000000000003 4.999999999999994 L170.00000000000003 4.999999999999994 z"/>
<path fill="#000000" stroke="#000000" d="M170.09607284754264 5.975449136207379 L170.09607284754264 5.975449136207379 L170.3806029288811 6.913419111533619 L170.3806029288811 6.913419111533619 z"/>
<path fill="#000000" stroke="#000000" d="M170.8426510233548 7.777849453005461 L170.8426510233548 7.777849453005461 L170.3806029979568 6.913418397558696 L170.3806029979568 6.913418397558696 z"/>
<path fill="#000000" stroke="#000000" d="M171.46446575058815 8.535533487402175 L171.46446575058815 8.535533487402175 L170.8426505869782 7.777849518279409 L170.8426505869782 7.777849518279409 z"/>
<path fill="#000000" stroke="#000000" d="M171.46446651259782 8.535534249411851 L171.46446651259782 8.535534249411851 L172.22215048172058 9.157349413021773 L172.22215048172058 9.157349413021773 z"/>
<path fill="#000000" stroke="#000000" d="M173.08658160244127 9.619397002043213 L173.08658160244127 9.619397002043213 L172.2221505469945 9.157348976645222 L172.2221505469945 9.157348976645222 z"/>
<path fill="#000000" stroke="#000000" d="M173.08658088846636 9.619397071118906 L173.08658088846636 9.619397071118906 L174.0245508637926 9.903927152457385 L174.0245508637926 9.903927152457385 z"/>
<path fill="#000000" stroke="#000000" d="M173.08658 9.6194 L174.02455 9.90393 L175 10 L175.97545 9.90393 L176.91342 9.6194 L177.77785 9.15735 L178.53553 8.53553 L179.15735 7.77785 L179.6194 6.91342 L179.90393 5.97545 L180 5 L179.90393 4.02455 L179.6194 3.08658 L179.15735 2.22215 L178.53553 1.46447 L177.77785 0.84265 L176.91342 0.3806 L175.97545 0.09607 L175 0 L174.02455 0.09607 L173.08658 0.3806 L172.22215 0.84265 L171.46447 1.46447 L170.84265 2.22215 L170.3806 3.08658 L170.09607 4.02455 L170 5 L170.09607 5.97545 L170.3806 6.91342 L170.84265 7.77785 L171.46447 8.53553 L172.22215 9.15735 z"/>
<path fill="#000000" stroke="#000000" d="M194.02455 9.90393 L193.08658 9.6194 L192.22215 9.15735 L191.46447 8.53553 L190.84265 7.77785 L190.3806 6.91342 L190.09607 5.97545 L190 5 L190.09607 4.02455 L190.3806 3.08658 L190.84265 2.22215 L191.46447 1.46447 L192.22215 0.84265 L193.08658 0.3806 L194.02455 0.09607 L195 0 L195.97545 0.09607 L196.91342 0.3806 L197.77785 0.84265 L198.53553 1.46447 L199.15735 2.22215 L199.6194 3.08658 L199.90393 4.02455 L200 5 L199.90393 5.97545 L199.6194 6.91342 L199.15735 7.77785 L198.53553 8.53553 L197.77785 9.15735 L196.91342 9.6194 L195.97545 9.90393 L195 10 z"/>
<path fill="#000000" stroke="#000000" d="M195.9754496645027 9.903926593638861 L195.9754496645027 9.903926593638861 L195 10.000000000000009 L195 10.000000000000009 z"/>
<path fill="#000000" stroke="#000000" d="M194.02455033549728 9.90392659363885 L194.02455033549728 9.90392659363885 L195 9.999999999999996 L195 9.999999999999996 z"/>
<path fill="#000000" stroke="#000000" d="M197.77784951827945 9.157349413021828 L197.77784951827945 9.157349413021828 L198.5355334874022 8.535534249411906 L198.5355334874022 8.535534249411906 z"/>
<path fill="#000000" stroke="#000000" d="M196.91341911153364 9.619397071118938 L196.91341911153364 9.619397071118938 L195.97544913620737 9.903927152457417 L195.97544913620737 9.903927152457417 z"/>
<path fill="#000000" stroke="#000000" d="M196.91341839755873 9.61939700204326 L196.91341839755873 9.61939700204326 L197.7778494530055 9.15734897664527 L197.7778494530055 9.15734897664527 z"/>
<path fill="#000000" stroke="#000000" d="M199.15734941302182 7.777849518279465 L199.15734941302182 7.777849518279465 L198.53553424941188 8.53553348740223 L198.53553424941188 8.53553348740223 z"/>
<path fill="#000000" stroke="#000000" d="M199.61939700204326 6.913418397558744 L199.61939700204326 6.913418397558744 L199.15734897664527 7.7778494530055085 L199.15734897664527 7.7778494530055085 z"/>
<path fill="#000000" stroke="#000000" d="M199.61939707111895 6.91341911153365 L199.61939707111895 6.91341911153365 L199.90392715245744 5.97544913620741 L199.90392715245744 5.97544913620741 z"/>
<path fill="#000000" stroke="#000000" d="M200.00000000000003 5.000000000000005 L200.00000000000003 5.000000000000005 L199.9039265936389 5.975449664502715 L199.9039265936389 5.975449664502715 z"/>
<path fill="#000000" stroke="#000000" d="M200.00000000000003 4.999999999999994 L200.00000000000003 4.999999999999994 L199.9039265936389 4.024550335497284 L199.9039265936389 4.024550335497284 z"/>
<path fill="#000000" stroke="#000000" d="M199.61939707111895 3.08658088846635 L199.61939707111895 3.08658088846635 L199.90392715245744 4.024550863792589 L199.90392715245744 4.024550863792589 z"/>
<path fill="#000000" stroke="#000000" d="M199.61939700204326 3.0865816024412576 L199.61939700204326 3.0865816024412576 L199.15734897664527 2.2221505469944924 L199.15734897664527 2.2221505469944924 z"/>
<path fill="#000000" stroke="#000000" d="M198.53553424941188 1.464466512597772 L198.53553424941188 1.464466512597772 L199.15734941302182 2.2221504817205373 L199.15734941302182 2.2221504817205373 z"/>
<path fill="#000000" stroke="#000000" d="M195.97544913620737 0.0960728475425889 L195.97544913620737 0.0960728475425889 L196.91341911153364 0.38060292888106717 L196.91341911153364 0.38060292888106717 z"/>
<path fill="#000000" stroke="#000000" d="M197.77784945300547 0.8426510233547335 L197.77784945300547 0.8426510233547335 L196.91341839755873 0.38060299795674307 L196.91341839755873 0.38060299795674307 z"/>
<path fill="#000000" stroke="#000000" d="M197.77784951827945 0.8426505869781749 L197.77784951827945 0.8426505869781749 L198.5355334874022 1.4644657505880971 L198.5355334874022 1.4644657505880971 z"/>
<path fill="#000000" stroke="#000000" d="M193.08658160244127 0.3806029979567906 L193.08658160244127 0.3806029979567906 L192.2221505469945 0.8426510233547815 L192.2221505469945 0.8426510233547815 z"/>
<path fill="#000000" stroke="#000000" d="M195 9.09324651755414e-15 L195 9.09324651755414e-15 L194.02455033549728 0.09607340636115491 L194.02455033549728 0.09607340636115491 z"/>
<path fill="#000000" stroke="#000000" d="M194.0245508637926 0.09607284754262016 L194.0245508637926 0.09607284754262016 L193.08658088846636 0.3806029288810989 L193.08658088846636 0.3806029288810989 z"/>
<path fill="#000000" stroke="#000000" d="M195 -2.056083557098941e-15 L195 -2.056083557098941e-15 L195.9754496645027 0.09607340636114453 L195.9754496645027 0.09607340636114453 z"/>
<path fill="#000000" stroke="#000000" d="M191.46446651259782 1.4644657505881529 L191.46446651259782 1.4644657505881529 L192.22215048172058 0.8426505869782311 L192.22215048172058 0.8426505869782311 z"/>
<path fill="#000000" stroke="#000000" d="M191.46446575058815 1.4644665125978278 L191.46446575058815 1.4644665125978278 L190.8426505869782 2.222150481720593 L190.8426505869782 2.222150481720593 z"/>
<path fill="#000000" stroke="#000000" d="M190.3806029979568 3.0865816024413046 L190.3806029979568 3.0865816024413046 L190.8426510233548 2.22215054699454 L190.8426510233548 2.22215054699454 z"/>
<path fill="#000000" stroke="#000000" d="M190.3806029288811 3.0865808884663815 L190.3806029288811 3.0865808884663815 L190.09607284754264 4.024550863792621 L190.09607284754264 4.024550863792621 z"/>
<path fill="#000000" stroke="#000000" d="M190.00000000000003 5.000000000000005 L190.00000000000003 5.000000000000005 L190.0960734063612 4.0245503354972945 L190.0960734063612 4.0245503354972945 z"/>
<path fill="#000000" stroke="#000000" d="M190.0960734063612 5.975449664502705 L190.0960734063612 5.975449664502705 L190.00000000000003 4.999999999999994 L190.00000000000003 4.999999999999994 z"/>
<path fill="#000000" stroke="#000000" d="M190.09607284754264 5.975449136207379 L190.09607284754264 5.975449136207379 L190.3806029288811 6.913419111533619 L190.3806029288811 6.913419111533619 z"/>
<path fill="#000000" stroke="#000000" d="M190.8426510233548 7.777849453005461 L190.8426510233548 7.777849453005461 L190.3806029979568 6.913418397558696 L190.3806029979568 6.913418397558696 z"/>
<path fill="#000000" stroke="#000000" d="M191.46446575058815 8.535533487402175 L191.46446575058815 8.535533487402175 L190.8426505869782 7.777849518279409 L190.8426505869782 7.777849518279409 z"/>
<path fill="#000000" stroke="#000000" d="M191.46446651259782 8.535534249411851 L191.46446651259782 8.535534249411851 L192.22215048172058 9.157349413021773 L192.22215048172058 9.157349413021773 z"/>
<path fill="#000000" stroke="#000000" d="M193.08658160244127 9.619397002043213 L193.08658160244127 9.619397002043213 L192.2221505469945 9.157348976645222 L192.2221505469945 9.157348976645222 z"/>
<path fill="#000000" stroke="#000000" d="M193.08658088846636 9.619397071118906 L193.08658088846636 9.619397071118906 L194.0245508637926 9.903927152457385 L194.0245508637926 9.903927152457385 z"/>
<path fill="#000000" stroke="#000000" d="M193.08658 9.6194 L194.02455 9.90393 L195 10 L195.97545 9.90393 L196.91342 9.6194 L197.77785 9.15735 L198.53553 8.53553 L199.15735 7.77785 L199.6194 6.91342 L199.90393 5.97545 L200 5 L199.90393 4.02455 L199.6194 3.08658 L199.15735 2.22215 L198.53553 1.46447 L197.77785 0.84265 L196.91342 0.3806 L195.97545 0.09607 L195 0 L194.02455 0.09607 L193.08658 0.3806 L192.22215 0.84265 L191.46447 1.46447 L190.84265 2.22215 L190.3806 3.08658 L190.09607 4.02455 L190 5 L190.09607 5.97545 L190.3806 6.91342 L190.84265 7.77785 L191.46447 8.53553 L192.22215 9.15735 z"/>
<path fill="#000000" stroke="#000000" d="M214.02455 9.90393 L213.08658 9.6194 L212.22215 9.15735 L211.46447 8.53553 L210.84265 7.77785 L210.3806 6.91342 L210.09607 5.97545 L210 5 L210.09607 4.02455 L210.3806 3.08658 L210.84265 2.22215 L211.46447 1.46447 L212.22215 0.84265 L213.08658 0.3806 L214.02455 0.09607 L215 0 L215.97545 0.09607 L216.91342 0.3806 L217.77785 0.84265 L218.53553 1.46447 L219.15735 2.22215 L219.6194 3.08658 L219.90393 4.02455 L220 5 L219.90393 5.97545 L219.6194 6.91342 L219.15735 7.77785 L218.53553 8.53553 L217.77785 9.15735 L216.91342 9.6194 L215.97545 9.90393 L215 10 z"/>
<path fill="#000000" stroke="#000000" d="M215.9754496645027 9.903926593638861 L215.9754496645027 9.903926593638861 L215 10.000000000000009 L215 10.000000000000009 z"/>
<path fill="#000000" stroke="#000000" d="M214.02455033549728 9.90392659363885 L214.02455033549728 9.90392659363885 L215 9.999999999999996 L215 9.999999999999996 z"/>
<path fill="#000000" stroke="#000000" d="M217.77784951827945 9.157349413021828 L217.77784951827945 9.157349413021828 L218.5355334874022 8.535534249411906 L218.5355334874022 8.535534249411906 z"/>
<path fill="#000000" stroke="#000000" d="M216.91341911153364 9.619397071118938 L216.91341911153364 9.619397071118938 L215.97544913620737 9.903927152457417 L215.97544913620737 9.903927152457417 z"/>
<path fill="#000000" stroke="#000000" d="M216.91341839755873 9.61939700204326 L216.91341839755873 9.61939700204326 L217.7778494530055 9.15734897664527 L217.7778494530055 9.15734897664527 z"/>
<path fill="#000000" stroke="#000000" d="M219.15734941302182 7.777849518279465 L219.15734941302182 7.777849518279465 L218.53553424941188 8.53553348740223 L218.53553424941188 8.53553348740223 z"/>
<path fill="#000000" stroke="#000000" d="M219.61939700204326 6.913418397558744 L219.61939700204326 6.913418397558744 L219.15734897664527 7.7778494530055085 L219.15734897664527 7.7778494530055085 z"/>
<path fill="#000000" stroke="#000000" d="M219.61939707111895 6.91341911153365 L219.61939707111895 6.91341911153365 L219.90392715245744 5.97544913620741 L219.90392715245744 5.97544913620741 z"/>
<path fill="#000000" stroke="#000000" d="M220.00000000000003 5.000000000000005 L220.00000000000003 5.000000000000005 L219.9039265936389 5.975449664502715 L219.9039265936389 5.975449664502715 z"/>
<path fill="#000000" stroke="#000000" d="M220.00000000000003 4.999999999999994 L220.00000000000003 4.999999999999994 L219.9039265936389 4.024550335497284 L219.9039265936389 4.024550335497284 z"/>
<path fill="#000000" stroke="#000000" d="M219.61939707111895 3.08658088846635 L219.61939707111895 3.08658088846635 L219.90392715245744 4.024550863792589 L219.90392715245744 4.024550863792589 z"/>
<path fill="#000000" stroke="#000000" d="M219.61939700204326 3.0865816024412576 L219.61939700204326 3.0865816024412576 L219.15734897664527 2.2221505469944924 L219.15734897664527 2.2221505469944924 z"/>
<path fill="#000000" stroke="#000000" d="M218.53553424941188 1.464466512597772 L218.53553424941188 1.464466512597772 L219.15734941302182 2.2221504817205373 L219.15734941302182 2.2221504817205373 z"/>
<path fill="#000000" stroke="#000000" d="M215.97544913620737 0.0960728475425889 L215.97544913620737 0.0960728475425889 L216.91341911153364 0.38060292888106717 L216.91341911153364 0.38060292888106717 z"/>
<path fill="#000000" stroke="#000000" d="M217.77784945300547 0.8426510233547335 L217.77784945300547 0.8426510233547335 L216.91341839755873 0.38060299795674307 L216.91341839755873 0.38060299795674307 z"/>
<path fill="#000000" stroke="#000000" d="M217.77784951827945 0.8426505869781749 L217.77784951827945 0.8426505869781749 L218.5355334874022 1.4644657505880971 L218.5355334874022 1.4644657505880971 z"/>
<path fill="#000000" stroke="#000000" d="M213.08658160244127 0.3806029979567906 L213.08658160244127 0.3806029979567906 L212.2221505469945 0.8426510233547815 L212.2221505469945 0.8426510233547815 z"/>
<path fill="#000000" stroke="#000000" d="M215 9.09324651755414e-15 L215 9.09324651755414e-15 L214.02455033549728 0.09607340636115491 L214.02455033549728 0.09607340636115491 z"/>
<path fill="#000000" stroke="#000000" d="M214.0245508637926 0.09607284754262016 L214.0245508637926 0.09607284754262016 L213.08658088846636 0.3806029288810989 L213.08658088846636 0.3806029288810989 z"/>
<path fill="#000000" stroke="#000000" d="M215 -2.056083557098941e-15 L215 -2.056083557098941e-15 L215.9754496645027 0.09607340636114453 L215.9754496645027 0.09607340636114453 z"/>
<path fill="#000000" stroke="#000000" d="M211.46446651259782 1.4644657505881529 L211.46446651259782 1.4644657505881529 L212.22215048172058 0.8426505869782311 L212.22215048172058 0.8426505869782311 z"/>
<path fill="#000000" stroke="#000000" d="M211.46446575058815 1.4644665125978278 L211.46446575058815 1.4644665125978278 L210.8426505869782 2.222150481720593 L210.8426505869782 2.222150481720593 z"/>
<path fill="#000000" stroke="#000000" d="M210.3806029979568 3.0865816024413046 L210.3806029979568 3.0865816024413046 L210.8426510233548 2.22215054699454 L210.8426510233548 2.22215054699454 z"/>
<path fill="#000000" stroke="#000000" d="M210.3806029288811 3.0865808884663815 L210.3806029288811 3.0865808884663815 L210.09607284754264 4.024550863792621 L210.09607284754264 4.024550863792621 z"/>
<path fill="#000000" stroke="#000000" d="M210.00000000000003 5.000000000000005 L210.00000000000003 5.000000000000005 L210.0960734063612 4.0245503354972945 L210.0960734063612 4.0245503354972945 z"/>
<path fill="#000000" stroke="#000000" d="M210.0960734063612 5.975449664502705 L210.0960734063612 5.975449664502705 L210.00000000000003 4.999999999999994 L210.00000000000003 4.999999999999994 z"/>
<path fill="#000000" stroke="#000000" d="M210.09607284754264 5.975449136207379 L210.09607284754264 5.975449136207379 L210.3806029288811 6.913419111533619 L210.3806029288811 6.913419111533619 z"/>
<path fill="#000000" stroke="#000000" d="M210.8426510233548 7.777849453005461 L210.8426510233548 7.777849453005461 L210.3806029979568 6.913418397558696 L210.3806029979568 6.913418397558696 z"/>
<path fill="#000000" stroke="#000000" d="M211.46446575058815 8.535533487402175 L211.46446575058815 8.535533487402175 L210.8426505869782 7.777849518279409 L210.8426505869782 7.777849518279409 z"/>
<path fill="#000000" stroke="#000000" d="M211.46446651259782 8.535534249411851 L211.46446651259782 8.535534249411851 L212.22215048172058 9.157349413021773 L212.22215048172058 9.157349413021773 z"/>
<path fill="#000000" stroke="#000000" d="M213.08658160244127 9.619397002043213 L213.08658160244127 9.619397002043213 L212.2221505469945 9.157348976645222 L212.2221505469945 9.157348976645222 z"/>
<path fill="#000000" stroke="#000000" d="M213.08658088846636 9.619397071118906 L213.08658088846636 9.619397071118906 L214.0245508637926 9.903927152457385 L214.0245508637926 9.903927152457385 z"/>
<path fill="#000000" stroke="#000000" d="M213.08658 9.6194 L214.02455 9.90393 L215 10 L215.97545 9.90393 L216.91342 9.6194 L217.77785 9.15735 L218.53553 8.53553 L219.15735 7.77785 L219.6194 6.91342 L219.90393 5.97545 L220 5 L219.90393 4.02455 L219.6194 3.08658 L219.15735 2.22215 L218.53553 1.46447 L217.77785 0.84265 L216.91342 0.3806 L215.97545 0.09607 L215 0 L214.02455 0.09607 L213.08658 0.3806 L212.22215 0.84265 L211.46447 1.46447 L210.84265 2.22215 L210.3806 3.08658 L210.09607 4.02455 L210 5 L210.09607 5.97545 L210.3806 6.91342 L210.84265 7.77785 L211.46447 8.53553 L212.22215 9.15735 z"/>
<path fill="#000000" stroke="#000000" d="M234.02455 9.90393 L233.08658 9.6194 L232.22215 9.15735 L231.46447 8.53553 L230.84265 7.77785 L230.3806 6.91342 L230.09607 5.97545 L230 5 L230.09607 4.02455 L230.3806 3.08658 L230.84265 2.22215 L231.46447 1.46447 L232.22215 0.84265 L233.08658 0.3806 L234.02455 0.09607 L235 0 L235.97545 0.09607 L236.91342 0.3806 L237.77785 0.84265 L238.53553 1.46447 L239.15735 2.22215 L239.6194 3.08658 L239.90393 4.02455 L240 5 L239.90393 5.97545 L239.6194 6.91342 L239.15735 7.77785 L238.53553 8.53553 L237.77785 9.15735 L236.91342 9.6194 L235.97545 9.90393 L235 10 z"/>
<path fill="#000000" stroke="#000000" d="M235.9754496645027 9.903926593638861 L235.9754496645027 9.903926593638861 L235 10.000000000000009 L235 10.000000000000009 z"/>
<path fill="#000000" stroke="#000000" d="M234.02455033549728 9.90392659363885 L234.02455033549728 9.90392659363885 L235 9.999999999999996 L235 9.999999999999996 z"/>
<path fill="#000000" stroke="#000000" d="M237.77784951827945 9.157349413021828 L237.77784951827945 9.157349413021828 L238.5355334874022 8.535534249411906 L238.5355334874022 8.535534249411906 z"/>
<path fill="#000000" stroke="#000000" d="M236.91341911153364 9.619397071118938 L236.91341911153364 9.619397071118938 L235.97544913620737 9.903927152457417 L235.97544913620737 9.903927152457417 z"/>
<path fill="#000000" stroke="#000000" d="M236.91341839755873 9.61939700204326 L236.91341839755873 9.61939700204326 L237.7778494530055 9.15734897664527 L237.7778494530055 9.15734897664527 z"/>
<path fill="#000000" stroke="#000000" d="M239.15734941302182 7.777849518279465 L239.15734941302182 7.777849518279465 L238.53553424941188 8.53553348740223 L238.53553424941188 8.53553348740223 z"/>
<path fill="#000000" stroke="#000000" d="M239.61939700204326 6.913418397558744 L239.61939700204326 6.913418397558744 L239.15734897664527 7.7778494530055085 L239.15734897664527 7.7778494530055085 z"/>
<path fill="#000000" stroke="#000000" d="M239.61939707111895 6.91341911153365 L239.61939707111895 6.91341911153365 L239.90392715245744 5.97544913620741 L239.90392715245744 5.97544913620741 z"/>
<path fill="#000000" stroke="#000000" d="M240.00000000000003 5.000000000000005 L240.00000000000003 5.000000000000005 L239.9039265936389 5.975449664502715 L239.9039265936389 5.975449664502715 z"/>
<path fill="#000000" stroke="#000000" d="M240.00000000000003 4.999999999999994 L240.00000000000003 4.999999999999994 L239.9039265936389 4.024550335497284 L239.9039265936389 4.024550335497284 z"/>
<path fill="#000000" stroke="#000000" d="M239.61939707111895 3.08658088846635 L239.61939707111895 3.08658088846635 L239.90392715245744 4.024550863792589 L239.90392715245744 4.024550863792589 z"/>
<path fill="#000000" stroke="#000000" d="M239.61939700204326 3.0865816024412576 L239.61939700204326 3.0865816024412576 L239.15734897664527 2.2221505469944924 L239.15734897664527 2.2221505469944924 z"/>
<path fill="#000000" stroke="#000000" d="M238.53553424941188 1.464466512597772 L238.53553424941188 1.464466512597772 L239.15734941302182 2.2221504817205373 L239.15734941302182 2.2221504817205373 z"/>
<path fill="#000000" stroke="#000000" d="M235.97544913620737 0.0960728475425889 L235.97544913620737 0.0960728475425889 L236.91341911153364 0.38060292888106717 L236.91341911153364 0.38060292888106717 z"/>
<path fill="#000000" stroke="#000000" d="M237.77784945300547 0.8426510233547335 L237.77784945300547 0.8426510233547335 L236.91341839755873 0.38060299795674307 L236.91341839755873 0.38060299795674307 z"/>
<path fill="#000000" stroke="#000000" d="M237.77784951827945 0.8426505869781749 L237.77784951827945 0.8426505869781749 L238.5355334874022 1.4644657505880971 L238.5355334874022 1.4644657505880971 z"/>
<path fill="#000000" stroke="#000000" d="M233.08658160244127 0.3806029979567906 L233.08658160244127 0.3806029979567906 L232.2221505469945 0.8426510233547815 L232.2221505469945 0.8426510233547815 z"/>
<path fill="#000000" stroke="#000000" d="M235 9.09324651755414e-15 L235 9.09324651755414e-15 L234.02455033549728 0.09607340636115491 L234.02455033549728 0.09607340636115491 z"/>
<path fill="#000000" stroke="#000000" d="M234.0245508637926 0.09607284754262016 L234.0245508637926 0.09607284754262016 L233.08658088846636 0.3806029288810989 L233.08658088846636 0.3806029288810989 z"/>
<path fill="#000000" stroke="#000000" d="M235 -2.056083557098941e-15 L235 -2.056083557098941e-15 L235.9754496645027 0.09607340636114453 L235.9754496645027 0.09607340636114453 z"/>
<path fill="#000000" stroke="#000000" d="M231.46446651259782 1.4644657505881529 L231.46446651259782 1.4644657505881529 L232.22215048172058 0.8426505869782311 L232.22215048172058 0.8426505869782311 z"/>
<path fill="#000000" stroke="#000000" d="M231.46446575058815 1.4644665125978278 L231.46446575058815 1.4644665125978278 L230.8426505869782 2.222150481720593 L230.8426505869782 2.222150481720593 z"/>
<path fill="#000000" stroke="#000000" d="M230.3806029979568 3.0865816024413046 L230.3806029979568 3.0865816024413046 L230.8426510233548 2.22215054699454 L230.8426510233548 2.22215054699454 z"/>
<path fill="#000000" stroke="#000000" d="M230.3806029288811 3.0865808884663815 L230.3806029288811 3.0865808884663815 L230.09607284754264 4.024550863792621 L230.09607284754264 4.024550863792621 z"/>
<path fill="#000000" stroke="#000000" d="M230.00000000000003 5.000000000000005 L230.00000000000003 5.000000000000005 L230.0960734063612 4.0245503354972945 L230.0960734063612 4.0245503354972945 z"/>
<path fill="#000000" stroke="#000000" d="M230.0960734063612 5.975449664502705 L230.0960734063612 5.975449664502705 L230.00000000000003 4.999999999999994 L230.00000000000003 4.999999999999994 z"/>
<path fill="#000000" stroke="#000000" d="M230.09607284754264 5.975449136207379 L230.09607284754264 5.975449136207379 L230.3806029288811 6.913419111533619 L230.3806029288811 6.913419111533619 z"/>
<path fill="#000000" stroke="#000000" d="M230.8426510233548 7.777849453005461 L230.8426510233548 7.777849453005461 L230.3806029979568 6.913418397558696 L230.3806029979568 6.913418397558696 z"/>
<path fill="#000000" stroke="#000000" d="M231.46446575058815 8.535533487402175 L231.46446575058815 8.535533487402175 L230.8426505869782 7.777849518279409 L230.8426505869782 7.777849518279409 z"/>
<path fill="#000000" stroke="#000000" d="M231.46446651259782 8.535534249411851 L231.46446651259782 8.535534249411851 L232.22215048172058 9.157349413021773 L232.22215048172058 9.157349413021773 z"/>
<path fill="#000000" stroke="#000000" d="M233.08658160244127 9.619397002043213 L233.08658160244127 9.619397002043213 L232.2221505469945 9.157348976645222 L232.2221505469945 9.157348976645222 z"/>
<path fill="#000000" stroke="#000000" d="M233.08658088846636 9.619397071118906 L233.08658088846636 9.619397071118906 L234.0245508637926 9.903927152457385 L234.0245508637926 9.903927152457385 z"/>
<path fill="#000000" stroke="#000000" d="M233.08658 9.6194 L234.02455 9.90393 L235 10 L235.97545 9.90393 L236.91342 9.6194 L237.77785 9.15735 L238.53553 8.53553 L239.15735 7.77785 L239.6194 6.91342 L239.90393 5.97545 L240 5 L239.90393 4.02455 L239.6194 3.08658 L239.15735 2.22215 L238.53553 1.46447 L237.77785 0.84265 L236.91342 0.3806 L235.97545 0.09607 L235 0 L234.02455 0.09607 L233.08658 0.3806 L232.22215 0.84265 L231.46447 1.46447 L230.84265 2.22215 L230.3806 3.08658 L230.09607 4.02455 L230 5 L230.09607 5.97545 L230.3806 6.91342 L230.84265 7.77785 L231.46447 8.53553 L232.22215 9.15735 z"/>
<path fill="#000000" stroke="#000000" d="M254.02455 9.90393 L253.08658 9.6194 L252.22215 9.15735 L251.46447 8.53553 L250.84265 7.77785 L250.3806 6.91342 L250.09607 5.97545 L250 5 L250.09607 4.02455 L250.3806 3.08658 L250.84265 2.22215 L251.46447 1.46447 L252.22215 0.84265 L253.08658 0.3806 L254.02455 0.09607 L255 0 L255.97545 0.09607 L256.91342 0.3806 L257.77785 0.84265 L258.53553 1.46447 L259.15735 2.22215 L259.6194 3.08658 L259.90393 4.02455 L260 5 L259.90393 5.97545 L259.6194 6.91342 L259.15735 7.77785 L258.53553 8.53553 L257.77785 9.15735 L256.91342 9.6194 L255.97545 9.90393 L255 10 z"/>
<path fill="#000000" stroke="#000000" d="M255.9754496645027 9.903926593638861 L255.9754496645027 9.903926593638861 L255 10.000000000000009 L255 10.000000000000009 z"/>
<path fill="#000000" stroke="#000000" d="M254.02455033549728 9.90392659363885 L254.02455033549728 9.90392659363885 L255 9.999999999999996 L255 9.999999999999996 z"/>
<path fill="#000000" stroke="#000000" d="M257.7778495182794 9.157349413021828 L257.7778495182794 9.157349413021828 L258.5355334874022 8.535534249411906 L258.5355334874022 8.535534249411906 z"/>
<path fill="#000000" stroke="#000000" d="M256.9134191115336 9.619397071118946 L256.9134191115336 9.619397071118946 L255.97544913620737 9.903927152457417 L255.97544913620737 9.903927152457417 z"/>
<path fill="#000000" stroke="#000000" d="M256.9134183975587 9.619397002043273 L256.9134183975587 9.619397002043273 L257.7778494530055 9.15734897664527 L257.7778494530055 9.15734897664527 z"/>
<path fill="#000000" stroke="#000000" d="M259.1573494130218 7.777849518279465 L259.1573494130218 7.777849518279465 L258.53553424941185 8.53553348740223 L258.53553424941185 8.53553348740223 z"/>
<path fill="#000000" stroke="#000000" d="M259.61939700204323 6.913418397558756 L259.61939700204323 6.913418397558756 L259.15734897664527 7.7778494530055085 L259.15734897664527 7.7778494530055085 z"/>
<path fill="#000000" stroke="#000000" d="M259.61939707111895 6.913419111533658 L259.61939707111895 6.913419111533658 L259.9039271524574 5.97544913620741 L259.9039271524574 5.97544913620741 z"/>
<path fill="#000000" stroke="#000000" d="M260 5.000000000000005 L260 5.000000000000005 L259.90392659363886 5.975449664502715 L259.90392659363886 5.975449664502715 z"/>
<path fill="#000000" stroke="#000000" d="M260 4.999999999999994 L260 4.999999999999994 L259.90392659363886 4.024550335497284 L259.90392659363886 4.024550335497284 z"/>
<path fill="#000000" stroke="#000000" d="M259.61939707111895 3.0865808884663424 L259.61939707111895 3.0865808884663424 L259.9039271524574 4.024550863792589 L259.9039271524574 4.024550863792589 z"/>
<path fill="#000000" stroke="#000000" d="M259.61939700204323 3.0865816024412456 L259.61939700204323 3.0865816024412456 L259.15734897664527 2.2221505469944924 L259.15734897664527 2.2221505469944924 z"/>
<path fill="#000000" stroke="#000000" d="M258.53553424941185 1.464466512597772 L258.53553424941185 1.464466512597772 L259.1573494130218 2.2221504817205373 L259.1573494130218 2.2221504817205373 z"/>
<path fill="#000000" stroke="#000000" d="M255.97544913620737 0.0960728475425889 L255.97544913620737 0.0960728475425889 L256.9134191115336 0.3806029288810593 L256.9134191115336 0.3806029288810593 z"/>
<path fill="#000000" stroke="#000000" d="M257.77784945300544 0.8426510233547335 L257.77784945300544 0.8426510233547335 L256.9134183975587 0.38060299795673125 L256.9134183975587 0.38060299795673125 z"/>
<path fill="#000000" stroke="#000000" d="M257.7778495182794 0.8426505869781749 L257.7778495182794 0.8426505869781749 L258.5355334874022 1.4644657505880971 L258.5355334874022 1.4644657505880971 z"/>
<path fill="#000000" stroke="#000000" d="M253.08658160244127 0.3806029979567906 L253.08658160244127 0.3806029979567906 L252.2221505469945 0.8426510233547815 L252.2221505469945 0.8426510233547815 z"/>
<path fill="#000000" stroke="#000000" d="M255 9.09324651755414e-15 L255 9.09324651755414e-15 L254.02455033549728 0.09607340636115491 L254.02455033549728 0.09607340636115491 z"/>
<path fill="#000000" stroke="#000000" d="M254.0245508637926 0.09607284754262016 L254.0245508637926 0.09607284754262016 L253.08658088846636 0.3806029288810989 L253.08658088846636 0.3806029288810989 z"/>
<path fill="#000000" stroke="#000000" d="M255 -2.056083557098941e-15 L255 -2.056083557098941e-15 L255.9754496645027 0.09607340636114453 L255.9754496645027 0.09607340636114453 z"/>
<path fill="#000000" stroke="#000000" d="M251.46446651259782 1.4644657505881529 L251.46446651259782 1.4644657505881529 L252.22215048172058 0.8426505869782311 L252.22215048172058 0.8426505869782311 z"/>
<path fill="#000000" stroke="#000000" d="M251.46446575058815 1.4644665125978278 L251.46446575058815 1.4644665125978278 L250.8426505869782 2.222150481720593 L250.8426505869782 2.222150481720593 z"/>
<path fill="#000000" stroke="#000000" d="M250.3806029979568 3.0865816024413046 L250.3806029979568 3.0865816024413046 L250.8426510233548 2.22215054699454 L250.8426510233548 2.22215054699454 z"/>
<path fill="#000000" stroke="#000000" d="M250.3806029288811 3.0865808884663815 L250.3806029288811 3.0865808884663815 L250.09607284754264 4.024550863792621 L250.09607284754264 4.024550863792621 z"/>
<path fill="#000000" stroke="#000000" d="M250.00000000000003 5.000000000000005 L250.00000000000003 5.000000000000005 L250.0960734063612 4.0245503354972945 L250.0960734063612 4.0245503354972945 z"/>
<path fill="#000000" stroke="#000000" d="M250.0960734063612 5.975449664502705 L250.0960734063612 5.975449664502705 L250.00000000000003 4.999999999999994 L250.00000000000003 4.999999999999994 z"/>
<path fill="#000000" stroke="#000000" d="M250.09607284754264 5.975449136207379 L250.09607284754264 5.975449136207379 L250.3806029288811 6.913419111533619 L250.3806029288811 6.913419111533619 z"/>
<path fill="#000000" stroke="#000000" d="M250.8426510233548 7.777849453005461 L250.8426510233548 7.777849453005461 L250.3806029979568 6.913418397558696 L250.3806029979568 6.913418397558696 z"/>
<path fill="#000000" stroke="#000000" d="M251.46446575058815 8.535533487402175 L251.46446575058815 8.535533487402175 L250.8426505869782 7.777849518279409 L250.8426505869782 7.777849518279409 z"/>
<path fill="#000000" stroke="#000000" d="M251.46446651259782 8.535534249411851 L251.46446651259782 8.535534249411851 L252.22215048172058 9.157349413021773 L252.22215048172058 9.157349413021773 z"/>
<path fill="#000000" stroke="#000000" d="M253.08658160244127 9.619397002043213 L253.08658160244127 9.619397002043213 L252.2221505469945 9.157348976645222 L252.2221505469945 9.157348976645222 z"/>
<path fill="#000000" stroke="#000000" d="M253.08658088846636 9.619397071118906 L253.08658088846636 9.619397071118906 L254.0245508637926 9.903927152457385 L254.0245508637926 9.903927152457385 z"/>
<path fill="#000000" stroke="#000000" d="M253.08658 9.6194 L254.02455 9.90393 L255 10 L255.97545 9.90393 L256.91342 9.6194 L257.77785 9.15735 L258.53553 8.53553 L259.15735 7.77785 L259.6194 6.91342 L259.90393 5.97545 L260 5 L259.90393 4.02455 L259.6194 3.08658 L259.15735 2.22215 L258.53553 1.46447 L257.77785 0.84265 L256.91342 0.3806 L255.97545 0.09607 L255 0 L254.02455 0.09607 L253.08658 0.3806 L252.22215 0.84265 L251.46447 1.46447 L250.84265 2.22215 L250.3806 3.08658 L250.09607 4.02455 L250 5 L250.09607 5.97545 L250.3806 6.91342 L250.84265 7.77785 L251.46447 8.53553 L252.22215 9.15735 z"/>
<path fill="#000000" stroke="#000000" d="M274.02455 9.90393 L273.08658 9.6194 L272.22215 9.15735 L271.46447 8.53553 L270.84265 7.77785 L270.3806 6.91342 L270.09607 5.97545 L270 5 L270.09607 4.02455 L270.3806 3.08658 L270.84265 2.22215 L271.46447 1.46447 L272.22215 0.84265 L273.08658 0.3806 L274.02455 0.09607 L275 0 L275.97545 0.09607 L276.91342 0.3806 L277.77785 0.84265 L278.53553 1.46447 L279.15735 2.22215 L279.6194 3.08658 L279.90393 4.02455 L280 5 L279.90393 5.97545 L279.6194 6.91342 L279.15735 7.77785 L278.53553 8.53553 L277.77785 9.15735 L276.91342 9.6194 L275.97545 9.90393 L275 10 z"/>
<path fill="#000000" stroke="#000000" d="M275.9754496645027 9.90392659363886 L275.9754496645027 9.90392659363886 L275 10.000000000000009 L275 10.000000000000009 z"/>
<path fill="#000000" stroke="#000000" d="M274.0245503354972 9.903926593638847 L274.0245503354972 9.903926593638847 L275 9.999999999999996 L275 9.999999999999996 z"/>
<path fill="#000000" stroke="#000000" d="M277.7778495182794 9.157349413021828 L277.7778495182794 9.157349413021828 L278.5355334874022 8.535534249411906 L278.5355334874022 8.535534249411906 z"/>
<path fill="#000000" stroke="#000000" d="M276.9134191115336 9.619397071118946 L276.9134191115336 9.619397071118946 L275.9754491362074 9.90392715245741 L275.9754491362074 9.90392715245741 z"/>
<path fill="#000000" stroke="#000000" d="M276.9134183975587 9.619397002043273 L276.9134183975587 9.619397002043273 L277.7778494530055 9.15734897664527 L277.7778494530055 9.15734897664527 z"/>
<path fill="#000000" stroke="#000000" d="M279.1573494130218 7.777849518279465 L279.1573494130218 7.777849518279465 L278.53553424941185 8.53553348740223 L278.53553424941185 8.53553348740223 z"/>
<path fill="#000000" stroke="#000000" d="M279.61939700204323 6.913418397558756 L279.61939700204323 6.913418397558756 L279.15734897664527 7.7778494530055085 L279.15734897664527 7.7778494530055085 z"/>
<path fill="#000000" stroke="#000000" d="M279.61939707111895 6.913419111533658 L279.61939707111895 6.913419111533658 L279.9039271524574 5.97544913620741 L279.9039271524574 5.97544913620741 z"/>
<path fill="#000000" stroke="#000000" d="M280 5.000000000000005 L280 5.000000000000005 L279.90392659363886 5.975449664502715 L279.90392659363886 5.975449664502715 z"/>
<path fill="#000000" stroke="#000000" d="M280 4.999999999999994 L280 4.999999999999994 L279.90392659363886 4.024550335497284 L279.90392659363886 4.024550335497284 z"/>
<path fill="#000000" stroke="#000000" d="M279.61939707111895 3.0865808884663424 L279.61939707111895 3.0865808884663424 L279.9039271524574 4.024550863792589 L279.9039271524574 4.024550863792589 z"/>
<path fill="#000000" stroke="#000000" d="M279.61939700204323 3.0865816024412456 L279.61939700204323 3.0865816024412456 L279.15734897664527 2.2221505469944924 L279.15734897664527 2.2221505469944924 z"/>
<path fill="#000000" stroke="#000000" d="M278.53553424941185 1.464466512597772 L278.53553424941185 1.464466512597772 L279.1573494130218 2.2221504817205373 L279.1573494130218 2.2221504817205373 z"/>
<path fill="#000000" stroke="#000000" d="M275.9754491362074 0.09607284754259679 L275.9754491362074 0.09607284754259679 L276.9134191115336 0.3806029288810593 L276.9134191115336 0.3806029288810593 z"/>
<path fill="#000000" stroke="#000000" d="M277.77784945300544 0.8426510233547335 L277.77784945300544 0.8426510233547335 L276.9134183975587 0.38060299795673125 L276.9134183975587 0.38060299795673125 z"/>
<path fill="#000000" stroke="#000000" d="M277.7778495182794 0.8426505869781749 L277.7778495182794 0.8426505869781749 L278.5355334874022 1.4644657505880971 L278.5355334874022 1.4644657505880971 z"/>
<path fill="#000000" stroke="#000000" d="M273.0865816024413 0.3806029979567788 L273.0865816024413 0.3806029979567788 L272.2221505469945 0.8426510233547815 L272.2221505469945 0.8426510233547815 z"/>
<path fill="#000000" stroke="#000000" d="M275 9.09324651755414e-15 L275 9.09324651755414e-15 L274.0245503354972 0.09607340636115769 L274.0245503354972 0.09607340636115769 z"/>
<path fill="#000000" stroke="#000000" d="M274.02455086379257 0.09607284754262806 L274.02455086379257 0.09607284754262806 L273.08658088846636 0.38060292888109104 L273.08658088846636 0.38060292888109104 z"/>
<path fill="#000000" stroke="#000000" d="M275 -2.056083557098941e-15 L275 -2.056083557098941e-15 L275.9754496645027 0.0960734063611473 L275.9754496645027 0.0960734063611473 z"/>
<path fill="#000000" stroke="#000000" d="M271.4644665125978 1.4644657505881529 L271.4644665125978 1.4644657505881529 L272.2221504817206 0.8426505869782311 L272.2221504817206 0.8426505869782311 z"/>
<path fill="#000000" stroke="#000000" d="M271.46446575058815 1.4644665125978278 L271.46446575058815 1.4644665125978278 L270.8426505869782 2.222150481720593 L270.8426505869782 2.222150481720593 z"/>
<path fill="#000000" stroke="#000000" d="M270.38060299795677 3.0865816024412926 L270.38060299795677 3.0865816024412926 L270.8426510233548 2.22215054699454 L270.8426510233548 2.22215054699454 z"/>
<path fill="#000000" stroke="#000000" d="M270.3806029288811 3.086580888466374 L270.3806029288811 3.086580888466374 L270.09607284754264 4.024550863792621 L270.09607284754264 4.024550863792621 z"/>
<path fill="#000000" stroke="#000000" d="M270 5.000000000000005 L270 5.000000000000005 L270.0960734063612 4.0245503354972945 L270.0960734063612 4.0245503354972945 z"/>
<path fill="#000000" stroke="#000000" d="M270.0960734063612 5.975449664502705 L270.0960734063612 5.975449664502705 L270 4.999999999999994 L270 4.999999999999994 z"/>
<path fill="#000000" stroke="#000000" d="M270.09607284754264 5.975449136207379 L270.09607284754264 5.975449136207379 L270.3806029288811 6.913419111533627 L270.3806029288811 6.913419111533627 z"/>
<path fill="#000000" stroke="#000000" d="M270.8426510233548 7.777849453005461 L270.8426510233548 7.777849453005461 L270.38060299795677 6.913418397558708 L270.38060299795677 6.913418397558708 z"/>
<path fill="#000000" stroke="#000000" d="M271.46446575058815 8.535533487402175 L271.46446575058815 8.535533487402175 L270.8426505869782 7.777849518279409 L270.8426505869782 7.777849518279409 z"/>
<path fill="#000000" stroke="#000000" d="M271.4644665125978 8.535534249411851 L271.4644665125978 8.535534249411851 L272.2221504817206 9.157349413021773 L272.2221504817206 9.157349413021773 z"/>
<path fill="#000000" stroke="#000000" d="M273.0865816024413 9.619397002043225 L273.0865816024413 9.619397002043225 L272.2221505469945 9.157348976645222 L272.2221505469945 9.157348976645222 z"/>
<path fill="#000000" stroke="#000000" d="M273.08658088846636 9.619397071118915 L273.08658088846636 9.619397071118915 L274.02455086379257 9.903927152457378 L274.02455086379257 9.903927152457378 z"/>
<path fill="#000000" stroke="#000000" d="M273.08658 9.6194 L274.02455 9.90393 L275 10 L275.97545 9.90393 L276.91342 9.6194 L277.77785 9.15735 L278.53553 8.53553 L279.15735 7.77785 L279.6194 6.91342 L279.90393 5.97545 L280 5 L279.90393 4.02455 L279.6194 3.08658 L279.15735 2.22215 L278.53553 1.46447 L277.77785 0.84265 L276.91342 0.3806 L275.97545 0.09607 L275 0 L274.02455 0.09607 L273.08658 0.3806 L272.22215 0.84265 L271.46447 1.46447 L270.84265 2.22215 L270.3806 3.08658 L270.09607 4.02455 L270 5 L270.09607 5.97545 L270.3806 6.91342 L270.84265 7.77785 L271.46447 8.53553 L272.22215 9.15735 z"/>
</svg>